<svg width="658" height="582" viewBox="0 0 658 582" fill="none" xmlns="http://www.w3.org/2000/svg">
<path fill-rule="evenodd" clip-rule="evenodd" d="M366.788 0C304.928 0 247.439 19.4733 200.242 52.4947C195.825 54.5884 192.711 58.7083 191.908 63.5311C191.877 63.6769 191.851 63.8279 191.825 63.9738C191.825 63.9842 191.825 63.9998 191.82 64.0102C191.106 68.6925 192.648 73.4373 195.987 76.7966L226.492 119.469C228.622 123.802 232.721 126.838 237.487 127.615C237.601 127.641 237.716 127.661 237.83 127.682C237.851 127.682 237.872 127.687 237.888 127.687C242.523 128.401 247.221 126.901 250.58 123.63C283.564 100.677 323.482 87.1514 366.788 87.1514C479.236 87.1514 570.108 178.042 570.108 290.511C570.108 402.981 479.234 493.871 366.788 493.871C261.376 493.871 175.122 415.637 164.548 313.351L228.538 335.013L228.533 335.018C234.668 338.081 242.095 336.575 246.549 331.362C250.991 326.278 251.465 318.846 247.715 313.236L176.127 164.143V164.148C174.351 160.45 171.132 157.643 167.226 156.393C163.32 155.138 159.075 155.544 155.476 157.518L9.67612 237.57C3.73346 239.804 -0.146808 245.549 0.00425875 251.898C0.00425875 252.007 0.00946608 252.112 0.0146754 252.221C0.0250914 252.539 0.0511331 252.856 0.0823837 253.174C0.12405 253.58 0.181337 253.987 0.254259 254.382C0.254259 254.408 0.259467 254.434 0.259467 254.461C1.38447 260.528 6.124 265.278 12.1865 266.414L76.3119 287.815V290.544C76.3119 450.824 206.525 581.064 366.779 581.064C527.032 581.064 657.245 450.829 657.245 290.544C657.245 130.264 527.032 0.0241292 366.779 0.0241292L366.788 0Z" fill="black"/>
</svg>
