<svg width="325" height="204" viewBox="0 0 325 204" fill="none" xmlns="http://www.w3.org/2000/svg">
<g clip-path="url(#clip0_604_13)">
<path d="M256 83L196 195H316L256 83Z" fill="white" stroke="black" stroke-width="18" stroke-linecap="round" stroke-linejoin="round"/>
<path d="M258 131L256 153L254 131H258Z" fill="black" stroke="black" stroke-width="15" stroke-linecap="round" stroke-linejoin="round"/>
<path d="M0 91.8368C0 94.5851 1.02857 96.9898 3.2 98.9365C5.02857 101.112 7.42858 102.143 10.4 102.143H178.286C181.6 102.143 184.343 103.288 186.629 105.578C188.914 107.868 190.057 110.731 190.057 114.052C190.057 117.373 188.914 120.121 186.629 122.296C184.343 124.472 181.6 125.617 178.171 125.617C174.857 125.617 172 124.472 169.829 122.296C168 120.235 165.714 119.319 162.971 119.319C160.114 119.319 157.714 120.35 155.657 122.296C153.6 124.243 152.571 126.648 152.571 129.282C152.571 132.144 153.6 134.549 155.771 136.496C162.171 142.794 169.714 146 178.171 146C187.086 146 194.743 142.908 201.143 136.725C207.543 130.541 210.629 123.098 210.629 114.166C210.629 105.235 207.429 97.6769 201.029 91.2643C194.629 84.8518 186.971 81.6455 178.171 81.6455H10.4C7.54286 81.6455 5.14286 82.6761 3.08571 84.6227C1.02857 86.5694 0 88.9741 0 91.8368ZM0 54.2776C0 56.9114 1.02857 59.2016 3.2 61.2627C5.14286 63.3239 7.54286 64.24 10.4 64.24H239.429C248.343 64.24 256 61.1482 262.4 54.8502C268.8 48.6667 272 41.109 272 32.2918C272 23.4745 268.8 15.8024 262.4 9.50431C256 3.20627 248.343 0 239.429 0C230.629 0 223.2 3.09177 217.143 9.16079C215.086 10.9929 214.057 13.5122 214.057 16.8329C214.057 19.8102 215.086 22.2149 217.029 24.0471C218.971 25.8792 221.371 26.7953 224.229 26.7953C226.971 26.7953 229.371 25.8792 231.429 24.0471C233.6 21.6424 236.229 20.4973 239.429 20.4973C242.743 20.4973 245.486 21.6424 247.771 23.9325C250.057 26.2227 251.2 28.971 251.2 32.2918C251.2 35.6126 250.057 38.3608 247.771 40.5365C245.486 42.7122 242.743 43.8572 239.429 43.8572H10.4C7.54286 43.8572 5.14286 44.8878 3.08571 46.8345C1.02857 49.0102 0 51.4149 0 54.2776Z" fill="black"/>
<circle cx="256" cy="172" r="7" fill="black"/>
</g>
<defs>
<clipPath id="clip0_604_13">
<rect width="325" height="204" fill="white"/>
</clipPath>
</defs>
</svg>
