<svg width="100" height="100" viewBox="0 0 100 100" fill="none" xmlns="http://www.w3.org/2000/svg">
<rect width="100" height="100" fill="white"/>
<path d="M50 5C53.5584 22.997 60.8857 40.0371 71.5 55C74.1576 58.9082 75.6997 63.467 75.9604 68.186C76.2211 72.9051 75.1906 77.6059 72.9796 81.7831C70.7686 85.9604 67.4609 89.4559 63.412 91.8939C59.3631 94.3319 54.7263 95.6202 50 95.6202C45.2738 95.6202 40.6369 94.3319 36.588 91.8939C32.5391 89.4559 29.2314 85.9604 27.0204 81.7831C24.8094 77.6059 23.7789 72.9051 24.0396 68.186C24.3003 63.467 25.8424 58.9082 28.5 55C39.1144 40.0371 46.4416 22.997 50 5Z" fill="white"/>
<path d="M50 5C53.5584 22.997 60.8857 40.0371 71.5 55C74.1576 58.9082 75.6997 63.467 75.9604 68.186C76.2211 72.9051 75.1906 77.6059 72.9796 81.7831C70.7686 85.9604 67.4609 89.4559 63.412 91.8939C59.3631 94.3319 54.7263 95.6202 50 95.6202C45.2738 95.6202 40.6369 94.3319 36.588 91.8939C32.5391 89.4559 29.2314 85.9604 27.0204 81.7831C24.8094 77.6059 23.7789 72.9051 24.0396 68.186C24.3003 63.467 25.8424 58.9082 28.5 55C39.1144 40.0371 46.4416 22.997 50 5" stroke="black" stroke-width="6" stroke-linecap="round"/>
<path d="M41 72C43.7614 72 46 68.866 46 65C46 61.134 43.7614 58 41 58C38.2386 58 36 61.134 36 65C36 68.866 38.2386 72 41 72Z" fill="white" stroke="black" stroke-width="4" stroke-linecap="round"/>
<path d="M59 82C61.7614 82 64 78.866 64 75C64 71.134 61.7614 68 59 68C56.2386 68 54 71.134 54 75C54 78.866 56.2386 82 59 82Z" fill="white" stroke="black" stroke-width="4" stroke-linecap="round"/>
<path d="M56 58L44 82L56 58Z" fill="white"/>
<path d="M56 58L44 82" stroke="black" stroke-width="4" stroke-linecap="round"/>
</svg>
