<svg width="30" height="30" viewBox="0 0 30 30" fill="none" xmlns="http://www.w3.org/2000/svg">
<path d="M20.0692 16.5823C20.0792 16.2323 19.9692 15.9323 19.7292 15.6823C19.4892 15.4323 19.1992 15.3123 18.8392 15.3223C18.4992 15.3023 18.2092 15.4223 17.9592 15.6923L16.2992 17.3323L16.2992 7.03233C16.3092 6.68233 16.1892 6.39233 15.9392 6.15233C15.6892 5.91233 15.3892 5.80233 15.0192 5.81233C14.6792 5.79233 14.3792 5.90233 14.1292 6.13233C13.8792 6.36233 13.7392 6.66233 13.7292 7.01233L13.7292 17.3123L12.0892 15.6723C11.8592 15.4323 11.5592 15.3023 11.2092 15.3023C10.8492 15.3023 10.5492 15.4223 10.3092 15.6623C10.0692 15.9023 9.9492 16.1923 9.9492 16.5523C9.9692 16.9123 10.0992 17.1923 10.3492 17.4023L14.0892 21.2423C14.3292 21.4723 14.6392 21.6123 15.0092 21.6423C15.3792 21.6223 15.6892 21.4823 15.9292 21.2323L19.6792 17.4223C19.9392 17.2023 20.0692 16.9223 20.0692 16.5823Z" fill="black"/>
</svg>
